# xmcd
#
# Track frame offsets: 
#        183
#        12998
#        26273
#        37640
#        49730
#        62908
#        74340
#        84890
#        96795
#        109253
#
# Disc length: 1625 seconds
#
# Revision: 0
# Processed by: cddbd v1.4PL0 Copyright (c) Steve Scherf et al.
# Submitted via: ExactAudioCopy v0.90a11
#
DISCID=7206570a
DTITLE=Williamson, Sonny Boy - Keep It To Yourself
DYEAR=1900
DGENRE=
TTITLE0=Keep It To Yourself
TTITLE1=Wake Up Baby
TTITLE2=Your Funeral and My Trial
TTITLE3=Trust My Baby
TTITLE4=Sad To Be Alone
TTITLE5=Peach Tree
TTITLE6=Let Your Conscience Be Your Guide
TTITLE7=This Is My Apartment
TTITLE8=One Way Out
TTITLE9=Like A Wolf
EXTD=
EXTT0=
EXTT1=
EXTT2=
EXTT3=
EXTT4=
EXTT5=
EXTT6=
EXTT7=
EXTT8=
EXTT9=
PLAYORDER=
